<?xml version="1.0" encoding="UTF-8"?>
<svg version="1.1" viewBox="0 0 1400 1764" width="350" height="441" xmlns="http://www.w3.org/2000/svg">
<path transform="translate(0)" d="m0 0h1400v1764h-1400z" fill="#9C9FCD"/>
<path transform="translate(0)" d="m0 0h1400v594l-5-2-4-4-8-4-4-5-1-4-1-9-7-11-7-6-4-2-23-1-7-3-6-6v-8l6-12v-1l-8 16h-114l-22-3-7-3-19-5-13-3-58-1-2 5-12 19-12 22-6 8-5 3h-22l-14-4-22-8-25-8-6-1h-26l-4-10-2-3 1-6 9-10 7-7 4-8-1-11-6-23-4-10-7-11-11-11-11-8-14-5-6-1h-10l-8 3-19 13-9 4-13 1-14-4-16-8-12-9-12-13-10-11-9-11-2-4-4-2-5-4-7-8-20-20-7-9-11-22-5-5-10-9-8-7-4-3-10-4-4-5-3-9-1-16 2-5 15-6 4-2h4l1-4 3-2 2 1 2-11 5-30 1-10v-42l-2-16-20 8-15 5-6-1-18-8-4-3-8-3-1-2-1-31-4-9-5-6-10-6-11-4-7-3h-9l-11 7-8 5h-12l-11-3-19-12-6-4-8-3-24-12-11-6-9-9-10-15-2-5h-2l-7-8-7-7h-6l-12 11-10 9-8 8-19 8-10 2-12 4h-8l-11-2h-13l-8 6-11 11-7 2-11 1-7 4-9 2-16 8-16 10-10 8-8 9-8 12-10 13-9 7h-31l-13-5-10-4-8-5-7 1-9 6-6 7-5 10-1 3v7l6 16 5 10 5 20 5 19 2 13 4 16 9 14 8 18 2 5 3 15 6 18 7 10 9 6 8 4 10 3 7 1 13-3h7l7 5 4 8 6 17 8 20 6 20 14 26 6 12 5 18v14l-1 10 17 1h8l6 4 5 4 7 11 6 16 3 10 10 13 3 7-1 7-9 13-9 12-5 12 1 8h2v2l12 3 10 4 4 4 1 3v11l-5 21-5 25-2 7-3 18-4 15-5 4-7 4-11 13-7 10-4-1-11-4-14-1-12 8-3 1h-7l-7-3-10-11-7-9-3-2-10 1-12 5-16 8-6 2h-12l-20-5-27 18-2 4v7l3 9v13l-4 13-5 9-4 5-16 10-9 6-7 7-11 7-9 3-27 5-13 3-3 5 1 8 8 18 12 24 11 20 5 13 6 27 1 7v23l-1 16-3 7-5 8-2 10 4 17 5 12 4 2v2l21 2 32 6 11 1 6 4 10 14 8 8 11 8 3 3v2h12l7-4h5l4 4h5l3-24 4-9 4 1 10 17 5 12 11-7 11-8 7-6 3-8 6-7 4-3h2v-2l11-6 7-3 14-1 8 2 10-3 4-2 9-1 2-4 6-9 1-14 6-12 5-4 11-6 9-5 4-2h4l2-4 5-9 5-17 1-2h2l2-5 1-2h2v-3l3-1h7l13 5 11 1 13-3 10-5 6-1v-2l7-1 9 2 27 11 10 8 3 10 10 18 8 11 4 7 9 9 10 7 4 6 5 11 10 8 5 6 2 6v10l7 11 2 10 6 9 2 4 14 7-1 9-4 15-4 8 2 10 4 11-1 17 4 11 12 16 6 10 12 28 1 4-7 13-9 12-10 14-11 17-7 11-8 9-9 4-21 4-8 1-1 1h-8l-8-3h-8l-8 5-4 13-7 13-3 1-16 2-8 3-6 1-5-5-7-9-8-10-7-12-7-9-3-3-9-1-9-4-7 1-11 8-9-1-13-5-10-7-6-4h-5v2l-11 4-5 1h-8l-8-4-10-6-16-8-6-8-12-20-6-7-6 1-5 3-7-1-9-4-19-2 1-8 10-21v-8l-7-14-1-4v-7l4-9 6-12v-8l-3-11-7-11 1 3 7 14 1 11-4 10-6 12v10l8 18-1 8-7 15-5 16-7 14-2 2-12 2-7 8-8 11h-11l-23-11-11-4-4 1-2 5 2 32-12 5-10 3-6 4-8 11-4 9-8 14-15 16-8 8-7 12-7 9-5 5-3 4-1 8 4 8 4 6 2 1h9l15-4 7-1 6 4 17 13 11 6 4 3 9 1 13 4 7 2 18 1 9 6 11 11 5 10 4 12 7 10 4 5 3 9 8 11 17 4 8 6 7 9 6 11 14 24 2 9 9 8 18 11 10 8 9 10 7 4h7l3-2 14-1h27v35l6 1 12 5 10 4 24 10 18 4h12l36-5h9l3 1h17l10-11 11-14 9-11 4-4 1-9v-13l1-11 5-19 3-4h7l6 3 4 11 4 23 4 3 10 4 5 1h8l8-4 6-7 12-19 4-1 13 10 7 4 8 3v2h14l20-7 12-5 5-4 1-2v-8l-2-9 1-5h12l4 5 8 16 11 21 6 9 10 8 3 1v2l6 2 9 5v2l5 1 5 3v2l4 1 16 10 4 4 4 31 4 2h35l7-2 4-5 5-12 3-3h5l10 11 7 11 2 1h8l17-3 20-7 9-4 7 1 13 6h14l8 3h10l10-4 6-4 6-9 2-7 6-8 9-5 3-4h2v-2l8-7 7-8 13-10 9-8 3-2 3-10 3-6-1-5-5-1-14-1-12-4v-2l-6-2-9-11-10-16-6-9-2-9 1-4h2l2-4 4-3 7-2v-2l6-3 3-2 1-7-1-12-3-10v-9l7-12-1-5-5-8-5-3-13-5-6-4-8-13-4-6-4-3v-2l-5-2-4-2v-2l-4-1-4-5-9-6v-2h-3v-2h-3v-2l-4-2-4-8-1-3h-3v-9l2-3v-12l-1-10-1-2v-7l2-12-1-6-6-6-10-3-1-1-9 1-12 4h-7l-3-4-1-10 4-5 22-14 3-1h8v-2l6-1v-2h4l3-9 3-6h2l2-6-1-7-6-8v-5l4-5 1-3h2l2-4 6-9 5-5 6-4 11-1 4-4v-8l-7-15-3-10-8-24-14-25-7-12-2-5 9-3 7-3 5-4 12-6 6-2 6-10 6-6 4 2 3 4 2 10 2 21 2 12 7 3 9-1 11-3 10-8 8-9 4-10 1-4v-9l-1-9 3-5-2-21-3-22-7-18-6-16-6-18 1-12 3-10 6-10 18-14 12-11 7-10 3-19 4-12 6-11-1-4-2-6 1-5 1-1h11l13 6 5 6 4 11 5-1 10-5 5-8 7-10 14-15 7-5 8-1 5-5 10-9 10-6 8-2 9-1h19l16 3 3 1h9l8-4h2l2-9v-20l10-6 4-5 1-4-1-4v-14l4-13 2-4v-7l-5-6-3-2-14-3h-9l-5 1h-10l-17-4h-13l-10 2-6 2-11 1-6-2-7-10-5-11-2-6v-16l6-8 11-9 15-11 6-3 9 1 9 4 8 7 4 1h7l2 1 1 16 12 4 18 9 11 9 2 2h3l6-9 4-14 4-6 12-15 4-10 5-11 3-16 5-15 7-20 2-2v1141h-1400z" fill="#FCFCFC"/>
<path transform="translate(713,1070)" d="m0 0 14 1 21 5 14 2 5 1v2h13l5 1v2l16 1 19 3 7 2 4 2 3 6 2 14v6l11 1 1-4 23-10 7-4h7l5 3 9 2 2-1 10-1 6-3 10-2 8-2v-2l12-2 13 2 7 3 4 1h6l7 3 4 4 1 6-7 18-2 8-3 6h-2l2 7 3 1 6 7 3 1v2l-2 1 2 5 13 23 9 16 6 21 3 7 5 13 3 6v8l-5 5-11 1-6 4-3 4h-2l-2 4-6 9h-2l-1 4-3 4 1 7 6 8-1 7-2 4h-2l-3 10-3 5h-4v2l-6 1v2l-11 2-22 14-3 4 1 10 2 3h7l16-5h5l8 3 5 3 6 7-1 13-1 3v7l1 2 1 10v12l-2 3-1 9h3l4 6 3 6 2 1v2h3v2h3v2l5 2 8 7v2l4 1v2l4 1 5 3v2l4 2 4 5 7 12 1 3 5 2 5 3 12 4 6 7 3 6-1 4-6 11v9l4 16v10l-2 4-6 4h-3v2l-10 5-3 4h-2v7l4 9 11 17 7 10 4 4v2l4 1 2 1v2l5 1 7 2 14 1 6 2 1 5-5 11-2 6-5 4h-2l-1 3-14 11-7 6-7 8-4 2v2l-7 6-9 6-4 7-3 9-7 8-10 5-4 1h-10l-8-3h-14l-15-7-7 1-23 9-16 3-5 1h-8l-4-4-8-11-7-8h-5l-3 4-5 12-5 5-13 1h-28l-5-3-4-31-9-7-11-7-3-1v-2l-10-4v-2l-5-2-10-5v-2l-4-1-7-5v-2l-4-2-12-21-8-15-6-12-1-1h-12l1 9 1 4v8l-4 5-5 3-16 6-14 5h-9l-5-1v-2l-10-3-13-9-5-4-4 1-11 18-8 9-7 3h-8l-10-3-8-4-2-2-5-27-3-7-5-2h-7l-3 6-4 16-1 14v10l-1 9-7 7-7 9-13 16-8 9h-17l-3-1h-9l-36 5h-12l-21-5-11-5-30-12-8-3v-35l-27 1-14 1-3 2h-7l-7-4-12-13-15-10-11-7-9-8-3-11-15-26-7-11-6-7-8-4-14-3-10-14-3-9-7-8-4-7-5-15-6-8-9-9-7-4-18-1-15-5-10-2-6-1-5-4-11-6-16-13-4-2-7 1-15 4h-9l-5-5-5-8-1-8 3-6 4-5 5-4 10-16 7-8 11-11 8-10 7-12 4-10 8-10 8-5 16-5 3-1-2-32 3-6 4-1 18 7 16 8h11l12-16 3-3 12-2 4-6 5-11 5-17 7-15-1-7-7-16v-10l8-16 2-6-1-11-9-18 4 2 7 12 2 9v8l-6 12-4 9v7l4 11 4 7v8l-10 21-2 8h13l9 2 8 4h5l7-4 5 1 7 9 11 18 6 8 21 10 9 6 3 1h8l10-3 6-1v-2l6-1 10 8 12 6 9 3h6l11-8 7-1 9 4 9 1 7 7 10 16 4 6 10 12 4 6 4 1 10-3 6-2 12-1 3-1 8-17 3-9 8-5h8l8 3h8l1-1 24-4 10-3 6-4 7-9 14-22 12-17 9-12 7-14-8-19-7-16-10-14-7-10-3-9v-8l1-9-6-18 1-5 4-9 5-19 1 2 2-3 12 6 6 1v2h19l7-2h11l5 2v2l14 2 11 4v2l11-1 3-3 12-24 3-10v-14l-4-1-4-9-2-7-1-12 2-6z" fill="#99CD87"/>
<path transform="translate(423,4)" d="m0 0h6l14 14v2h2l7 11 8 11 7 7 16 8 19 10 8 3 24 15 11 3h12l14-9 5-3h9l15 6 10 5 6 5 4 5 3 8 1 33 10 3 8 5 15 6 10-2 21-8 7-2 3 16v42l-4 30-4 18-1 3-4 1-2 4-16 6-7 3-1 4 1 16 4 11 4 3 10 4 8 8 11 9 5 4 12 23 4 6 12 13 18 18v2l4 2 5 4 9 11 10 11 7 8 9 10 13 9 15 7 12 3 13-1 9-4 16-11 7-4 4-1h10l12 3 10 4 13 11 8 8 8 13 6 18 4 20-1 7-6 8-11 11-4 8 1 5 2 3v7l-5 10-10 19h-2l-1 6h-2l-3 11-2 11-4 17-3 16-5 13-8 10-8 3-16 2-32 3-18 1-10 2-8 1-7 7-9 16-8 23-1 12 2 6-1 7-2 6-3 16-3 1-2 6-7 9-3 2h-9l-9-6-5-4-7-8-8-7-12-8-1-8 2-6 3-30 5-21 3-7 3-1 17-1 12-4 4-12v-12l-3-6-5-4-12-3-14-6-14-5-16-4-11-4-10-2-14-5-9 1-10 5-6 1h-30l-7-3-12-10-9-6-7-2h-16l-12 5-10 2h-26l-21-5-25-7-20-7-29-6-14-4-7-1-4-2-31-13-4-2h-6l-3-9-9-11-4-9-3-10-6-14-4-5v-2l-4-2-5-4-2-1h-16l-9-2-1-3 1-7v-14l-6-21-17-32-4-9-5-17-16-40-4-4-3-2h-7l-13 3-7-1-12-4-13-7-7-8-5-10-6-21-2-9-5-12-8-16-5-7-5-19-2-14-8-31-3-8-6-13-3-9v-7l4-9 6-9 8-7 6-3h5l9 6 15 5 7 3h31l10-8 20-28 8-8 18-12 10-6 13-6 9-2 5-3 16-2 8-7 8-8 5-3h13l11 2h8l15-5 10-2 16-7 15-15 8-7z" fill="#FC9696"/>
<path transform="translate(848,12)" d="m0 0h11l8 3 10 9 9 8 6 4 7 3 25 8 9 1 12 5 1 3 5 1 25 20 18 12 11 6 14 10 13 10 14 13 6 3 6 1v2l8 1 11 8 12 13v2h2l6 7 4 2v2l6 2 15 9 14 10 7 8 4 9-3 12-2 6v10l2 7h2l6 8 4 10 1 3 4 2 10 6 15 5 9 4 4 1v2l10 2 5 2v2l7 1 8 2 18 2 5 1 19 7 12 6 10 9 13 10 4 2v2l6 2 21 9 10 4 9-3 7-2 10 1 8 7 2 6-11 12h-2l-2 4-16 16-1 4 3 6 5 7v6l-12 16-14 19-14 21-3 5h-2l-1 6-3 8v9l12 9 6 4 1 9-8 16h-114l-22-3-7-3-19-5-13-3-58-1-2 5-12 19-12 22-6 8-5 3h-22l-14-4-22-8-25-8-6-1h-26l-4-10-2-3 1-6 9-10 7-7 4-8-1-11-6-23-4-10-7-11-11-11-11-8-14-5-6-1h-10l-8 3-19 13-9 4-13 1-14-4-16-8-12-9-12-13-10-11-9-11-2-4-4-2-5-4-7-8-20-20-7-9-11-22-5-5-10-9-8-7-4-3-10-4-4-5-3-9-1-16 2-5 15-6 4-2h4l1-4 3-2 2 1 2-11 5-30 1-10v-42l-2-16-2-1 4-2h34l17 3 12 4 8 5 6 9 11 30 4 4 10-1 12-4 13-9 9-9 11-17 4-8 1-4v-8l-3-7v-42l1-14-1-3-9-2-11-3-5-3-5-9-1-10 3-12 5-6 12-6z" fill="#FDFB87"/>
<path transform="translate(337,561)" d="m0 0 7 1 28 12 10 3v1l17 4 16 4 19 4 27 9 15 4 21 5h26l13-3 9-4h16l8 3 12 8 9 8 6 2h30l9-2 10-5 9 1 13 5 11 2 14 5 16 4 15 6 13 5 8 2 6 7 1 3v12l-4 10-4 4-9 3-19 1-4 10-5 25-2 23-3 10-13 9-14 8-9 4-36 8-29 6-19 5-4 2-5 5-3 5-1 9 3 10-1 5-7 6-5 5-6 7h-3v2l-5 2-5 1-1 1-8-1-8-4-3 4-5 13-8 14-10 16-8 9-8 6-8 7-3 4-2 8-2 13-6 23h-2v2l-7 1v2l-13 5-5 3-11 2-11-1-13-5h-10v3h-2l-2 5-1 2h-2l-3 11-3 10-5 10-13 5-13 8-8 5-6 12-1 14-9 13-11 3-7 3-7 1-6-2-14 1-11 5-5 3h-2v2l-9 7-4 7-2 5-9 8-18 12-2 2-7-15-9-16-3-1-3 9-3 24-1 1h-5l-4-4-8 1-4 3h-9l-3-1-5-6-11-8-8-8-9-13-5-3-11-1-38-7-15-2v-2l-5-2-5-12-4-17 2-10 6-10 2-5 1-16v-23l-5-26-5-16-8-16-17-33-8-18-1-8 3-5 9-3 14-3 18-3 11-4 11-8 10-9 11-6 10-7 4-6 5-11 2-8v-13l-3-9v-7l4-6 22-14 4-3 10 3 10 2h12l13-5 15-8 10-3h6l7 6 7 9 6 7 7 3h7l8-4 7-5 14 1 15 6 2-4 10-13 6-7 7-4 5-5 5-23 2-11 5-22 3-15 3-13v-11l-3-5-9-4-14-5v-2h-2l-2-4 1-7 6-12 13-17 5-9z" fill="#C4D58C"/>
<path transform="translate(225,1174)" d="m0 0 4 2 7 12 2 9v8l-6 12-4 9v7l4 11 4 7v8l-10 21-2 8h13l9 2 8 4h5l7-4 5 1 7 9 11 18 6 8 21 10 9 6 3 1h8l10-3 6-1v-2l6-1 10 8 12 6 9 3h6l11-8 7-1 9 4 9 1 7 7 10 16 4 6 10 12 5 7 4 14v10l-5 5-8 4-1 3 2 4 3 2 3 7v4h2l3 11 1 6 5 6 6 3v2l10 3 12 3 6 5 4 6 5 5 9 13 1 3 4 5 5 4 7 8 4 4 4 2 5 3-1 10-2 6 1 11 3 6 1 4v20l8 2 2 2 7 6 1 5 1 7 1 1 2 20-7-3h-7l-3 6-4 16-1 14v10l-1 9-7 7-7 9-13 16-8 9h-17l-3-1h-9l-36 5h-12l-21-5-11-5-30-12-8-3v-35l-27 1-14 1-3 2h-7l-7-4-12-13-15-10-11-7-9-8-3-11-15-26-7-11-6-7-8-4-14-3-10-14-3-9-7-8-4-7-5-15-6-8-9-9-7-4-18-1-15-5-10-2-6-1-5-4-11-6-16-13-4-2-7 1-15 4h-9l-5-5-5-8-1-8 3-6 4-5 5-4 10-16 7-8 11-11 8-10 7-12 4-10 8-10 8-5 16-5 3-1-2-32 3-6 4-1 18 7 16 8h11l12-16 3-3 12-2 4-6 5-11 5-17 7-15-1-7-7-16v-10l8-16 2-6-1-11-8-16z" fill="#C098C3"/>
<path transform="translate(454,967)" d="m0 0 12 2 27 11 10 8 3 10 10 18 8 11 4 7 9 9 10 7 4 6 5 11 10 8 5 6 2 6v10l7 11 2 10 6 9 2 4 14 7-1 9-4 15-4 8 2 10 4 11-1 17 4 11 12 16 6 10 12 28 1 4-7 13-9 12-10 14-11 17-7 11-8 9-9 4-21 4-8 1-1 1h-8l-8-3h-8l-8 5-4 13-7 13-3 1-16 2-8 3-6 1-5-5-7-9-8-10-7-12-7-9-3-3-9-1-9-4-7 1-11 8-9-1-13-5-10-7-6-4h-5v2l-11 4-5 1h-8l-8-4-10-6-16-8-6-8-12-20-6-7-6 1-5 3-7-1-9-4-19-2 1-8 10-21v-8l-7-14-1-4v-7l4-9 6-12v-8l-3-11-7-11-5-5-1-7 3-7v-10l-9-12-2-3 1-5 19-13 8-7 3-8 6-7 4-3h2v-2l11-6 7-3 14-1 8 2 10-3 4-2 9-1 2-4 6-9 1-14 6-12 5-4 11-6 9-5 4-2h4l2-4 5-9 5-17 1-2h2l2-5 1-2h2v-3l3-1h7l13 5 11 1 13-3 10-5 6-1v-2z" fill="#FEFCBE"/>
<path transform="translate(209,732)" d="m0 0h6l7 6 7 9 6 7 7 3h7l8-4 7-5 14 1 15 6-2 1 1 11 3 9v13l-1 9-1 26-5 5-2 3 1 6 10 4v2h3l5 13v2h2l13 26 1 9 2 5 4 25 1 10 1 2 6 2h11l13-1 16 10 5 5 2 16 2 2v7l-5 8-5 11-5 15-5 3-7 3-4 2v3l-14 8-5 4-5 11-1 14-9 13-11 3-7 3-7 1-6-2-14 1-11 5-5 3h-2v2l-9 7-4 7-2 5-9 8-18 12-2 2-7-15-9-16-3-1-3 9-3 24-1 1h-5l-4-4-8 1-4 3h-9l-3-1-5-6-11-8-8-8-9-13-5-3-11-1-38-7-15-2v-2l-5-2-5-12-4-17 2-10 6-10 2-5 1-16v-23l-5-26-5-16-8-16-17-33-8-18-1-8 3-5 9-3 14-3 18-3 11-4 11-8 10-9 11-6 10-7 4-6 5-11 2-8v-13l-3-9v-7l4-6 22-14 4-3 10 3 10 2h12l13-5 15-8z" fill="#99D8FC"/>
<path transform="translate(838,942)" d="m0 0h6l6 4 10 7 7 7 6 10 1 9-3 6-6 5h-7l-8-2h-21l-21-1-2 4-9 1-6-4-1-1-13 1-10-1-5-1-11 4-7 2h-11l-5-3-2-8 2-2 18-2 8-3-2-6-8-13-1-7 4-5 5 1 8 10 7 13 3 4 8 1 7-2 7-7 6-3 6 1 6 4 4 5 9 2h8v-10l5-7v-3l-3-1v-5z" fill="#070409"/>
<path transform="translate(562,453)" d="m0 0h5l1 4-1 2-11 3-8 4-1 2 14-6 8-1 3 2-1 5-20 8 15 15 8 4h6l3-2 2-5 5 1 3 5 7 2 2-9 3-13h6l11 8 7 8 1 8-3 5-1 1h-38l-1-3h-2l-1 3h-16l-4-4-1-2-4 1-3 4-12 2h-21l-7-2-5-6v-10l4-5h4v8l2 5h27l5-1-1-4-10-10-1-6 2-3-1-4-1-5 15-7z" fill="#0A060B"/>
<path transform="translate(572,923)" d="m0 0h40l1 1v34l-2 7h-37l-3-1v-40z" fill="#C297C2"/>
<path transform="translate(796,459)" d="m0 0h5l2 2-1 5-3 2-14 3-3 1 1 4 8 8 3 6v6l-4 6-6 2h-18l-5-1-3 1-12 1-3 7-7 6-7 3h-6l-1-3 5-5 10-7 1-2-9-3-2-4 1-8 4-5 6-2 6 5 5 8 7-1 4-6h4l2 6 6 1h13l-2-6-8-8-3-5v-5l7-6 12-5z" fill="#0A070B"/>
<path transform="translate(688,953)" d="m0 0h5l4 5 3 9v10l-5 12-7 8-7 4-4 1h-16l-8-3-5-4-5-7-1-3v-15l3-7 6-5 4 1 2 2-1 8-1 2v9l3 5 9 2 12-1 4-2 3-7v-7l-2-9 1-6z" fill="#070409"/>
<path transform="translate(449,767)" d="m0 0h5l1 1 1 33 1 1 8 1 1-10 4-5 7-1 6 3 1 2v7l-2 4 14-1 1-1v-11l1-1h5l2 5v11l-3 5-6 2-16 1 1 12-5 1-6-5-3-6v-3h-13l-5-3-2-4v-37z" fill="#0B080C"/>
<path transform="translate(356,1497)" d="m0 0h7l1 1 1 33 10 1 1-8 4-6 8-1 5 5v7l-1 4 2-1 12-1v-12l7 1 3 6-1 7-3 6-6 2-14 2-1 1-1 11-7-1-4-5-4-7-12-1-5-3-2-4z" fill="#0C080D"/>
<path transform="translate(759,1449)" d="m0 0h5l2 5 3 27 2 3h5l7-9 4-2 7 1 3 4 1 3v7l-4 5-2 1h-7l-7-1-1 1h-8l-5-3-2-2-8 5-9 2-5-3-1-4 2-2 5-1-2-16-4-13v-5l3-2 4 1 5 10 2 9v14l4-3 1-7-2-16v-7z" fill="#0A070B"/>
<path transform="translate(432,1178)" d="m0 0 5 2 2 5-1 7-3 5-4 3h-11l-3-3-4 2-1 1h-7l-1-3-5 1-2 2h-6l-6-3-3 3-7 1-6-1-7 10-13 6-4-1 1-5 13-8 3-4 1-5v-10l6 1 5 7h6l5-7 4 1 2 5 4 1 5-8 4 1 3 7h4l3-7 5 1 1 6h11v-12z" fill="#070409"/>
<path transform="translate(300,1156)" d="m0 0h5l2 11v13l1 10 1 1h14l3-1-2-4-1-3h-2l-7-8-2-3 1-6 5-4 11-4 7-2h6l1 3-1 3-19 7h-2l7 8 6 9 1 5-6 7-6 2h-17l-5-3-2-4-1-16v-18z" fill="#070409"/>
<path transform="translate(203,978)" d="m0 0 4 1 10 18 3 2h6l2-7 5 1 3 5 3 1 4-8 5 2 2 5 5 1v-11l4-1 3 3 1 2v8l-4 6-5 2-7-1v-2l-7 3-8-1h-4l-1 1h-11l-6-1-6 2-9 1-5-2v-5l5-2 10-2 2-1-2-5-3-5-2-4 1-5z" fill="#070409"/>
<path transform="translate(712,920)" d="m0 0 6 1 2 2 1 4v59l-1 2-8 1-3-6-1-12-1-29v-17z" fill="#070409"/>
<path transform="translate(572,923)" d="m0 0h40l1 1v34l-2 7h-37l-3-1v-40zm4 6-1 25 1 5h27l4-1v-29z" fill="#070409"/>
<path transform="translate(485,1177)" d="m0 0 4 2 1 3v11l-5 6-9 2-6-1-2 8-6 5-10 5h-4l-1-4 2-4 8-4 4-4v-2l-8-4-1-1v-8l5-7h8l5 7 2 4h11l-1-11z" fill="#0B080C"/>
<path transform="translate(288,1511)" d="m0 0 5 2 4 9 5 8 2 1h9l1-5v-7l4-1 3 1 2 6-1 11-4 4-4 1h-20l-8 3h-7l-4-4 1-4 2-1 9-1 4-2-1-7-4-5-1-6z" fill="#070409"/>
<path transform="translate(722,1470)" d="m0 0 5 1 1 1v15l-2 4-7 3h-8l-5-1-6 9-10 6-9 1-1-4 10-7 8-7 1-6-1-8 2-2 6 1 4 7 9 2 1-14z" fill="#070409"/>
<path transform="translate(127,964)" d="m0 0h6l1 1 1 23 1 11h8l3-1v-12h7l2 2v12l-6 7-4 1h-12l-5-3-2-4-1-7v-29z" fill="#070409"/>
<path transform="translate(337,1517)" d="m0 0h6l5 3 2 5v14l-4 6-7 7-9 4-5-2 1-4 3-3 6-4 3-3 1-3-6-1-4-5 1-7 5-6z" fill="#0E090F"/>
<path transform="translate(285,1177)" d="m0 0 5 1 2 2 1 4v10l-4 8-8 7-2 1h-13l-6-4-4-6-1-3v-7l3-7 5-1 1 5-1 8 2 5 10 1 7-4 2-5-1-13z" fill="#070409"/>
<path transform="translate(966,332)" d="m0 0 7 1 3 7v7l-4 9-5 6-5 2h-11l-7-3-6-9v-9l3-6 5-2 2 1-2 9 1 6 3 3 2 1h8l5-3 2-4v-8z" fill="#070409"/>
<path transform="translate(430,1531)" d="m0 0h9l6 4 3 4v8l-7 8-2 1h-8l-6-4-3-4-1-7 5-8z" fill="#070409"/>
<path transform="translate(815,1447)" d="m0 0h10l6 5 2 9-2 5-6 5-9 1-5-3-4-5-1-2v-6l4-6z" fill="#070409"/>
<path transform="translate(785,521)" d="m0 0h10l6 5 2 4v7l-6 7-4 2-9-1-6-5-2-5 1-6 4-6z" fill="#070409"/>
<path transform="translate(540,818)" d="m0 0 9 2 5 7v9l-6 7-2 1h-10l-6-7-1-9 4-6z" fill="#070409"/>
<path transform="translate(520,1172)" d="m0 0h8l6 4 3 4v8l-5 6-5 2h-8l-6-5-2-4v-7l5-5z" fill="#070409"/>
<path transform="translate(1341,790)" d="m0 0h2l-1 6v14l1 5-4 7-5 4-6 3v20l-3 9-10 5h-9l-11-3-8-1h-19l-14 2-8 4-4-1 8-5 16-4 17-1 22 5h9l6-1 2-4 2-1v-12l-2-6-1-5 1-2 6-1v-2l5-3 3-3 1-16z" fill="#929EB4"/>
<path transform="translate(262,930)" d="m0 0h10l5 4 2 4v9l-5 5-9 2-7-3-4-5-1-6 4-6z" fill="#070409"/>
<path transform="translate(139,743)" d="m0 0 10 3 17 3v1h-11l-11-3h-6l-10 7-13 9-3 2 1 10 2 6v17l-4 12-10 14-22 14-16 13-13 6-15 3-19 3-9 1 1-2 22-5 18-3 11-4 11-8 10-9 11-6 10-7 4-6 5-11 2-8v-13l-3-9v-7l4-6 22-14z" fill="#90A0B6"/>
<path transform="translate(1047,363)" d="m0 0h13l5 6 2 7-4 6-3 3-7 2-8-3-4-5v-8l4-7z" fill="#070409"/>
<path transform="translate(1036,1125)" d="m0 0 4 1 6 5 3 7 2 21 1 14 2 4h13l12-4 6-4 3-4h2l1-4h2l1-6h2l3-12 2-2-1 9-4 10-11 12-8 6-16 4-8-1-4-3-3-20-2-20-3-6-4-2-8 9-5 8h-5l5-5 5-9 4-5z" fill="#8D9CB2"/>
<path transform="translate(317,878)" d="m0 0 3 2 5 23v6h2l1 4 1 14 1 7 1 1h21l6-1 14 9 8 6 2 9 2 10 2 2h7l-1 2h-3v2h-2v3h-2l-2 5-1 2h-2l-3 11-3 10-5 10-13 5-3 1v-2l8-5 7-3 7-20 7-13 1-1v-7l-2-2-2-16-8-7-12-7-13 1h-11l-7-3-1-2-2-16-3-19-2-5-2-12z" fill="#99CA8A"/>
<path transform="translate(510 1e3)" d="m0 0 4 5 9 10 4 6 2 6 4 5 4 4 2 4 7 5 6 6 4 7 3 7 5 6 2 1v2h2v2h2l4 9-2 2-4-9-8-7-6-5-4-10-3-4v-2l-5-2-13-12-5-6-3-6-8-11-2-4v-5z" fill="#8993B1"/>
<path transform="translate(1079,1011)" d="m0 0h1l-1 17 6 18 4 10 9 24 5 39-1 5-2 4 1 12-3-1v-12l1-3h-2v-34l-3-10-4-10-6-16-7-17-2-18 3-7z" fill="#91A0B2"/>
<path transform="translate(1207,532)" d="m0 0h115v3l-8 1h-93l-14-1z" fill="#716782"/>
<path transform="translate(702,475)" d="m0 0 6 1 7 7 5 10-2 5-4 5-9 2h-9l-4-2 1-5 8-2 11-1-3-7-8-8z" fill="#070409"/>
<path transform="translate(644,460)" d="m0 0h7l1 1v40l-1 3h-5l-2-3-1-40z" fill="#070409"/>
<path transform="translate(5,865)" d="m0 0h1l1 9 8 18 11 20 16 32 4 10 3 12 2 19v21l-2 10h-1v-31l-5-26-5-16-8-16-17-33-8-18-1-8z" fill="#90A3B2"/>
<path transform="translate(107,978)" d="m0 0 6 3 6 7 3 8v6l-5 5-13 2-7-1-1-5 4-2 13-2 2-1-2-4-7-8-2-2 1-5z" fill="#070409"/>
<path transform="translate(679,482)" d="m0 0h6l1 1v16l-3 5-6 7-8 5-7 1-2-1v-5l14-9 3-5 1-14z" fill="#070409"/>
<path transform="translate(434,789)" d="m0 0h5l1 1 1 15-4 7-9 9-9 4h-3l-1-7 8-5 7-4 1-2 1-16z" fill="#070409"/>
<path transform="translate(733,957)" d="m0 0 5 1v2l4 1 2 1v2l4 1 4 3 3 4-1 3-8 3-10-1-5-4-2-4 2-9z" fill="#8D9AB9"/>
<path transform="translate(270,964)" d="m0 0h6v43l-4 1-3-1-2-36v-6z" fill="#070409"/>
<path transform="translate(1029,332)" d="m0 0 5 1 1 1v13l-5 10-8 7-5 2h-7l-1-4 10-7 5-4 3-9 1-9z" fill="#070409"/>
<path transform="translate(1e3 332)" d="m0 0 4 4v9l-4 11-5 6-11 5-5-1v-4l12-9h2l2-5 1-3v-9z" fill="#070409"/>
<path transform="translate(209,732)" d="m0 0h6l7 6 7 9 6 7 7 3h7l8-4 7-5 14 1 15 6-4 2-13-5-10-1-10 5-6 4-8 1-9-6-11-11-7-8-4-2-17 7-14 7-9 1 3-2 12-5 16-8z" fill="#95A8B0"/>
<path transform="translate(47,1024)" d="m0 0h2l-1 6-6 11v14l2 9 5 12 6 3 40 7 9 2v3l-38-7-15-2v-2l-5-2-5-12-4-17 2-10 6-10z" fill="#8B9AB0"/>
<path transform="translate(170,965)" d="m0 0h7v42h-5l-1-5-2-29v-7z" fill="#070409"/>
<path transform="translate(693,140)" d="m0 0h2l3 16v42l-4 30-4 18-1 3-3-1 3-11 5-33 2-26-1-19-2-11v-4l-3-1zm-8 108m-1 1m-1 1m-2 1h2v3l-7 1 2-2h3z" fill="#C297C3"/>
<path transform="translate(847,116)" d="m0 0 2 3 4 16-2 10-10 17-9 11-10 10-3 2-3-1 10-8 7-7 11-17 4-8 1-4v-8l-2-5zm-71 50 2 2 7 20 4 4 10-1 12-4 5-2-4 4-12 5-10 1-5-2-7-17-2-6z" fill="#D49EA8"/>
<path transform="translate(585,936)" d="m0 0h13l2 1v12l-1 3-4 1h-9l-2-1v-15z" fill="#070409"/>
<path transform="translate(225,1174)" d="m0 0 4 2 7 12 2 9v8l-6 12-4 9v7l4 11 4 7v8l-10 21-2 7h-1l1-8 5-12 4-9-1-7-7-16v-10l8-16 2-6-1-11-8-16z" fill="#DDAC99"/>
<path transform="translate(744,645)" d="m0 0 5 2 1 3h2l2 5v11l-4 10-6 7-5 2-23 2-6 21-4 24h-1v-12l5-25 4-10 3-1 17-1 12-4 4-12v-12l-3-6z" fill="#C198C4"/>
<path transform="translate(1088,517)" d="m0 0h58l13 3 6 2v1l-18-1-7-1h-17l-34-1-5 7-1-2z" fill="#8D87A6"/>
<path transform="translate(306,1072)" d="m0 0h5l-3 3-7 3-7 1-6-2-14 1-11 5-5 3h-2v2l-9 7-4 7-2 5-9 8-9 6h-2l2-4 13-10 5-6 6-10 14-11 8-3 4-2 10-1 6 1h9l6-2z" fill="#8599A2"/>
<path transform="translate(1324,538)" d="m0 0 8 6 4 1 23 1 9 6 7 9 4 8v5h-2l-4-8-7-9v-2l-3-1-4-4h-18l-8-2v-2l-4-1-5-5z" fill="#979AB5"/>
<path transform="translate(336,558)" d="m0 0 7 1 18 8 19 7 18 6 24 5 4 3-11-1-27-7-7-1-4-2-31-13-4-2h-6z" fill="#AD89AF"/>
<path transform="translate(92,826)" d="m0 0 2 1-4 4-11 7-16 13-13 6-15 3-19 3-9 1 1-2 22-5 18-3 11-4 11-8 10-9 11-6z" fill="#8F9FB5"/>
<path transform="translate(713,1070)" d="m0 0 14 1 21 5 14 2 5 1v2l9 1v1h-7l-27-5-16-4-3-1h-10v13l3 8 4 10v2l-3-1-4-9-2-7-1-12 2-6z" fill="#8D9AB9"/>
<path transform="translate(373,944)" d="m0 0 6 4 2 3 3 17 2 2h7l-1 2h-3v2h-2v3h-2l-2 5-1 2h-2l-3 11-3 10-5 10-13 5-3 1v-2l8-5 7-3 7-20 7-13 1-1v-7l-2-2-2-16-6-6z" fill="#A1B4A0"/>
<path transform="translate(192,1094)" d="m0 0 5 1 4 4 9 17 3 7 5-2 3 1-7 5-2 2-7-15-9-16-3-1-3 9-3 24-1 1h-5l-2-3 5-1 3-19 3-12z" fill="#92AAAC"/>
<path transform="translate(721,1109)" d="m0 0 2 3 1 4v7l-7 19-10 16-3 2-15-1-11-3 4-1 10 2h11l3-3 12-24 3-10z" fill="#666E85"/>
<path transform="translate(41,948)" d="m0 0h2l3 6 3 12 2 19v21l-2 10h-1v-31l-5-26z" fill="#92A2B3"/>
<path transform="translate(650,449)" d="m0 0h9l-2 5-2 2-15 1-7 2v-5l5-4z" fill="#070409"/>
<path transform="translate(542,1043)" d="m0 0 4 2 6 6 4 7 3 7 5 6 2 1v2h2v2h2l4 9-2 2-4-9-8-7-6-5-4-10-3-4v-2l-5-2-3-4z" fill="#9899B6"/>
<path transform="translate(564,833)" d="m0 0 3 1-2 3h-2l-1 3-7 6-4 5-10 4h-9l-9-4-4 2 1-6 5 1 5 2v2h8l3-2 8-1v-2l3-1 9-11z" fill="#AC9CB7"/>
<path transform="translate(182,951)" d="m0 0h3l-1 6-3 2-17 2-5 2 1-7 3-2 14-1z" fill="#070409"/>
<path transform="translate(932,454)" d="m0 0h2l8 13 6 18 4 20-1 7-6 8-5 5h-2l2-4 5-6h2l1-4 1-2v-7l-4-18-6-16-6-11z" fill="#C497C0"/>
<path transform="translate(113,1090)" d="m0 0 6 1 5 5 9 12 12 11 6 4 5 4 7 1 4 1-2 2h-9l-3-1-5-6-11-8-8-8-9-13-7-4z" fill="#90A2B5"/>
<path transform="translate(843,13)" d="m0 0h11v1l-14 2-13 5-3 1v2h-2l-2 5-1 2v18l3 6 8 5 11 2-4 2-11-3-5-3-5-9-1-10 3-12 5-6 12-6z" fill="#CAADAA"/>
<path transform="translate(431,589)" d="m0 0 9 1 11 4 16 4 19 6 14 3 3 2-11-1-19-5-22-6-20-7z" fill="#C197C3"/>
<path transform="translate(1276,854)" d="m0 0h7l10 2 1 2-7 1h-19l-14 2-8 4-4-1 8-5 16-4z" fill="#909EB7"/>
<path transform="translate(1263,683)" d="m0 0 11 3 13 8v2l10 3v1l-8 1-7-7-8-4-6-2h-6l-12 7-5 4-2-1 6-5 9-7z" fill="#91A0AF"/>
<path transform="translate(666,936)" d="m0 0 6 1 4 5-2 6-4 3-4-1-3-3v-8z" fill="#070409"/>
<path transform="translate(1046,361)" d="m0 0h15l6 7 1 7h-2l-3-8-3-3h-13l-3 3-2 4v8l5 5 6 2v1h-7l-8-7v-10l4-6 4-1z" fill="#EEE5C0"/>
<path transform="translate(726,362)" d="m0 0 4 2 18 18v2l4 2 5 4 9 11 10 11-1 2-11-11-7-8-23-23-8-9z" fill="#CB97BC"/>
<path transform="translate(703,137)" d="m0 0h28l17 3 12 4 8 5 6 9 2 5-1 3-6-12-7-6-10-4-15-4-13-1h-21z" fill="#C5A1A0"/>
<path transform="translate(1079,1011)" d="m0 0h1l-1 17 6 18 2 5-1 4-3-3-6-15-2-18 3-7z" fill="#929DB5"/>
<path transform="translate(703,757)" d="m0 0 11 7 10 9 7 8 10 7 2 1h9l5-3-1 3-6 3h-7l-8-4-20-20-11-8-2-2z" fill="#C198C4"/>
<path transform="translate(139,743)" d="m0 0 10 3 17 3v1h-11l-11-3h-6l-10 7-13 9-6 5 2-6 11-8 16-10z" fill="#91A2B4"/>
<path transform="translate(56,1080)" d="m0 0 23 3 25 5v3l-38-7-11-1z" fill="#8D9DB0"/>
<path transform="translate(968,72)" d="m0 0 4 2 17 12 10 6 9 5 16 12h-3l-6-3-5-5-12-6v-2l-5-2-14-9-11-9z" fill="#C692AD"/>
<path transform="translate(793,681)" d="m0 0 2 2-6 7-5 9h-2l-2 9-4 12-2 7-3 1 2-9 7-19 8-14z" fill="#C198C4"/>
<path transform="translate(1271,757)" d="m0 0h13l12 3v2l-21-2-17 3h-3v-2l9-3z" fill="#9C9DB4"/>
<path transform="translate(878,1101)" d="m0 0h7l2 2-9 2-16 8-13 5h-2l1-3 23-10z" fill="#6E7790"/>
<path transform="translate(715,684)" d="m0 0 6 1v1l-5 1-6 21-4 24h-1v-12l5-25 4-10z" fill="#C198C4"/>
<path transform="translate(693,212)" d="m0 0h2l-1 16-4 18-1 3-3-1 3-11zm-8 36m-1 1m-1 1m-2 1h2v3l-7 1 2-2h3z" fill="#9F7C9F"/>
<path transform="translate(426,1208)" d="m0 0h15v6l-5 1-3-1-6 1-2-1v-5z" fill="#070409"/>
<path transform="translate(339,648)" d="m0 0h2l-1 8-2 8-3 19h-2l-1 9-2 3v-7l5-22 3-15z" fill="#B3B0A4"/>
<path transform="translate(881,428)" d="m0 0h10l6 1v2h-9l-13 2-11 7-12 8-2-1 14-10 13-8z" fill="#CF97B8"/>
<path transform="translate(1086,1054)" d="m0 0 4 4 6 16 2 6v6l-2-1-4-9-6-17-1-4z" fill="#919DB4"/>
<path transform="translate(736,1074)" d="m0 0 12 2 14 2 5 1v2l9 1v1h-7l-27-5-5-2z" fill="#52586C"/>
<path transform="translate(512,1009)" d="m0 0 2 1v2l3 1 10 15 6 8 6 7h-3l-10-10-5-9-8-11z" fill="#CD9DB5"/>
<path transform="translate(295,775)" d="m0 0 3 2-1 16-3 23h-1v-18z" fill="#525767"/>
<path transform="translate(317,878)" d="m0 0 3 2 5 23v6h2l1 4v14l-2-3-2-10-2-15-2-5-2-12z" fill="#697877"/>
<path transform="translate(1330,762)" d="m0 0 9 1 8 7 1 2v7l-4 10h-2l1-5 1-3v-7l-5-7-9-4z" fill="#959CB6"/>
<path transform="translate(384,576)" d="m0 0 23 6 15 3 4 3-11-1-32-8z" fill="#C198C4"/>
<path transform="translate(476,55)" d="m0 0 5 1 20 10 9 4 11 7-2 1-42-21z" fill="#CF97B8"/>
<path transform="translate(1054,571)" d="m0 0 2 1-4 4-7 2h-9l-8-3v-1l23-1z" fill="#76718B"/>
<path transform="translate(1028,113)" d="m0 0 4 2 14 13 6 3 6 1v2l8 1 4 4-9-3-9-2-6-3-5-5-9-7z" fill="#D7AC9E"/>
<path transform="translate(1100,1141)" d="m0 0h1l-1 9-4 10-11 12-6 4 2-4 5-5 4-2 1-4h2l1-6h2l3-12z" fill="#8FA0B5"/>
<path transform="translate(202,734)" d="m0 0h6l-3 2-16 8-13 5h-5l3-2 12-5z" fill="#8E9DB3"/>
<path transform="translate(773,738)" d="m0 0 2 2 1 7-3 8-1 2-2 9-1 4h-2l2-14 3-8-1-9z" fill="#C198C4"/>
<path transform="translate(311,731)" d="m0 0 4 1-5 4-10 14-7 6 1-4 11-14z" fill="#A6C58F"/>
<path transform="translate(1324,538)" d="m0 0 8 6 4 1 14 1-1 4h-8l-8-2v-2l-4-1-5-5z" fill="#A59BBA"/>
<path transform="translate(661,260)" d="m0 0 2 1-3 2-1 4 1 16 4 11-1 2-4-5-2-6-1-14 1-8z" fill="#C897BD"/>
<path transform="translate(373,998)" d="m0 0 2 2-1 5-5 10-13 5-3 1v-2l8-5 7-3z" fill="#9CA8A8"/>
<path transform="translate(111,800)" d="m0 0 2 1-1 6-5 9-6 8-8 5 1-4 7-5 4-6 5-11z" fill="#92A9AD"/>
<path transform="translate(496,817)" d="m0 0 5 1 2 2v5l-3 2-5-1-1-1v-6z" fill="#070409"/>
<path transform="translate(704,630)" d="m0 0 7 1 11 5 20 7v1l-9-1-17-7-11-4z" fill="#C197C3"/>
<path transform="translate(886,667)" d="m0 0 2 1-2 2-25 4-11 1-8-1v-1l38-4z" fill="#C198C4"/>
<path transform="translate(348,1022)" d="m0 0 3 1-10 6-6 4-6 12h-1v-7l7-8 8-6z" fill="#8D9FAF"/>
<path transform="translate(534,844)" d="m0 0h14l-2 1v2l2 1-7 3h-5l-1-5z" fill="#F2F1BC"/>
<path transform="translate(686,310)" d="m0 0 4 2 12 10 8 15-1 3-8-14-6-7-9-7z" fill="#D097B8"/>
<path transform="translate(92,826)" d="m0 0 2 1-4 4-11 7-10 8v-3l7-7 10-6z" fill="#909FB9"/>
<path transform="translate(1174,525)" d="m0 0 6 1 5 2 7 1 1 3-3 1-9-1-9-5z" fill="#6D6D85"/>
<path transform="translate(407,1503)" d="m0 0 5 2 1 1v5l-1 1h-7l-1-1 1-7z" fill="#070409"/>
<path transform="translate(1263,683)" d="m0 0 6 2v2l-9 2-11 7-4 3-2-1 6-5 9-7z" fill="#8F9EB5"/>
<path transform="translate(904,625)" d="m0 0 1 4-1 9-3 13-4 8-3 1 2-6 4-10z" fill="#C198C4"/>
<path transform="translate(225,1174)" d="m0 0 4 2 7 12 2 9v8l-2-2-3-13-7-14z" fill="#CBC28D"/>
<path transform="translate(564,833)" d="m0 0 3 1-2 3h-2l-1 3-7 6-4 5-4 2-3-1 6-3v-2l5-5 6-7z" fill="#8995B3"/>
<path transform="translate(712,1147)" d="m0 0v3l-6 9-2 1-15-1-11-3 4-1 10 2h11z" fill="#070409"/>
<path transform="translate(1223,732)" d="m0 0 2 2 5 13 6 10 2 4-5-2-5-9-4-10z" fill="#939DB4"/>
<path transform="translate(847,116)" d="m0 0 2 3 4 16-2 9h-2v-12l-2-5z" fill="#BBA6B1"/>
<path transform="translate(313,1504)" d="m0 0h6l2 2-1 5-1 1h-6l-1-1v-6z" fill="#070409"/>
<path transform="translate(142,1119)" d="m0 0 5 1 9 7 7 1 4 1-2 2h-9l-3-1-5-6-6-4z" fill="#93A5B5"/>
<path transform="translate(922,1100)" d="m0 0 3 1-8 4-7 3-1 1h-6l-4-3 2-1 10-1 6-3z" fill="#71718B"/>
<path transform="translate(306,1072)" d="m0 0h5l-3 3-7 3-7 1-6-2-8-1-1-2 10 1h9l6-2z" fill="#92A6B1"/>
<path transform="translate(1121,965)" d="m0 0v3l-9 10-12 10v-3l4-4h2l2-5 6-2 2-4z" fill="#8F9DB6"/>
<path transform="translate(1138,193)" d="m0 0 5 5 4 9-3 12-3 3 2-11-1-8-4-8z" fill="#C4B1A3"/>
<path transform="translate(235,1203)" d="m0 0h2l-1 7-6 10-3 7-1 6h-1v-8l8-16z" fill="#CCA5AC"/>
<path transform="translate(552,1059)" d="m0 0 4 4 1 4 5 2 4 3v2h2v2h2l4 9-2 2-4-9-8-7-6-5z" fill="#CFA1B0"/>
<path transform="translate(667,772)" d="m0 0h4l-1 4-16 3h-5v-2l16-4z" fill="#858BA9"/>
<path transform="translate(795,434)" d="m0 0 4 1 10 6 11 5 9 3v1h-6l-18-8-10-7z" fill="#D397B6"/>
<path transform="translate(205,1108)" d="m0 0 2 3 3 5 3 7 5-2 3 1-7 5-2 2-7-15-1-4z" fill="#93B0A5"/>
<path transform="translate(562,459)" d="m0 0h5l1 2-14 5-7 2 2-4z" fill="#DD9AAF"/>
<path transform="translate(776,166)" d="m0 0 2 2 7 20 4 4 6 1-4 2-5-1-6-12-4-12z" fill="#D597B4"/>
<path transform="translate(985,1116)" d="m0 0 1 4-5 14-3 9-3 1 2 6h-2l-1-7 2-4h2l1-7z" fill="#312E3B"/>
<path transform="translate(701,751)" d="m0 0h1l1 7-1 1-9 2-10 5-2-1 10-6 9-6z" fill="#656077"/>
<path transform="translate(1302,716)" d="m0 0 10 2 11 5 8 5-2 1-9-4-8-4-10-3z" fill="#8EA0B3"/>
<path transform="translate(949,499)" d="m0 0h2l1 10-4 8-8 8h-2l2-4 5-6h2l1-4 1-2z" fill="#B58AAE"/>
<path transform="translate(759,510)" d="m0 0 4 1 1 7-5 1-3-2v-5z" fill="#070409"/>
<path transform="translate(717,1500)" d="m0 0 4 1 2 4-2 3h-7l1-7z" fill="#070409"/>
<path transform="translate(490,1165)" d="m0 0 4 1 1 1v5l-2 2-5-1-1-5z" fill="#070409"/>
<path transform="translate(998,318)" d="m0 0 5 2v5l-2 2-5-1-1-1v-5z" fill="#070409"/>
<path transform="translate(744,645)" d="m0 0 5 2 1 3h2l2 5-1 10-2 4-1-14-3-6z" fill="#99789B"/>
<path transform="translate(271,1167)" d="m0 0 5 1 1 5-1 2h-6l-1-1v-5z" fill="#070409"/>
<path transform="translate(966,554)" d="m0 0 8 1 12 4-1 2h-7l-9-4z" fill="#54586C"/>
<path transform="translate(479,1165)" d="m0 0 5 2 1 4-3 3-4-1-2-2 1-5z" fill="#070409"/>
<path transform="translate(84,1084)" d="m0 0 20 4v3l-22-4 2-1z" fill="#8395A2"/>
<path transform="translate(556,838)" d="m0 0 3 1-7 8h-3v2l-5 2v-2l2-2v-2l7-6z" fill="#9BCE88"/>
<path transform="translate(953,321)" d="m0 0h5l2 2-1 5-5 1-2-1v-6z" fill="#070409"/>
<path transform="translate(848,144)" d="m0 0 3 1-10 17-6 7v-3l10-16z" fill="#C9AAA8"/>
<path transform="translate(236,1107)" d="m0 0 3 1-5 5-11 8h-2l2-4z" fill="#8E9FB1"/>
<path transform="translate(774,724)" d="m0 0h1v16l-4-1-1-2 1-9z" fill="#55586D"/>
<path transform="translate(713,1070)" d="m0 0 14 1 9 3 1 2-9-1-5-2h-10l-2 4v-5z" fill="#5C6378"/>
<path transform="translate(832,674)" d="m0 0h10l-3 2-21 2-6-1 2-2z" fill="#C198C4"/>
<path transform="translate(847,68)" d="m0 0 3 1-1 20-2 4z" fill="#AD7D99"/>
<path transform="translate(728,1500)" d="m0 0h3l1 7-1 1h-5l-2-2 1-4z" fill="#070409"/>
<path transform="translate(47,1024)" d="m0 0h2l-1 6-6 11-1 5h-1l-1-7 6-10z" fill="#93A5B5"/>
<path transform="translate(1383,670)" d="m0 0h1l-1 9-8 16-2-1 5-11v-2h2l2-10z" fill="#8E9DB6"/>
<path transform="translate(679,622)" d="m0 0 10 2 11 5-3 1-17-5z" fill="#B68FB9"/>
<path transform="translate(1054,361)" d="m0 0h7l6 7 1 7h-2l-3-8-3-3-12-1v-1z" fill="#DADBCF"/>
<path transform="translate(449,966)" d="m0 0h3v2h-2v2l-13 5-3 1-3-2 12-5h4v-2z" fill="#8DB178"/>
<path transform="translate(295,819)" d="m0 0 2 1-2 5-7 8 2 6-3-1-2-3 1-5 5-4z" fill="#7F86A1"/>
<path transform="translate(273,749)" d="m0 0 7 1 13 5-4 2-13-5-4-2z" fill="#95A1B3"/>
<path transform="translate(693,140)" d="m0 0h2l2 10v9h-2l-2-11v-4l-3-1z" fill="#98779A"/>
<path transform="translate(585,1119)" d="m0 0 2 1 3 7 4 2 5 6-9-3-6-10z" fill="#9F9EB4"/>
<path transform="translate(829,1092)" d="m0 0 3 1 3 9 1 16h-2l-3-22z" fill="#4B5062"/>
<path transform="translate(482,908)" d="m0 0 3 1-12 11h-3l2-4 8-7z" fill="#6A6C86"/>
<path transform="translate(587,472)" d="m0 0 4 2v6l-4 1-3-3 1-5z" fill="#070409"/>
<path transform="translate(1363,341)" d="m0 0 10 1 5 5-5-2-2-1h-9l-4 2h-6l4-3z" fill="#CDB6A0"/>
<path transform="translate(146,1015)" d="m0 0 6 1v6h-6l-2-2 1-4z" fill="#070409"/>
<path transform="translate(1079,1011)" d="m0 0h1l-1 19-3-2-1-9 3-7z" fill="#9B9BB4"/>
<path transform="translate(139,743)" d="m0 0 10 3 17 3v1h-11l-11-3-8-1z" fill="#93A7B2"/>
<path transform="translate(1144,519)" d="m0 0h13l8 3v1l-18-1-3-1z" fill="#5F6176"/>
<path transform="translate(1e3 93)" d="m0 0 5 2 14 10 5 5-6-2-8-7-9-5z" fill="#D4A1AF"/>
<path transform="translate(669,1151)" d="m0 0 12 1 11 4v1l-10-1-9-2-4-2z" fill="#707A93"/>
<path transform="translate(264,748)" d="m0 0 9 1v1l-10 2-9 6-5 1v-2l8-4z" fill="#92A8AF"/>
<path transform="translate(1396,626)" d="m0 0 2 2-6 17-3 7-1-4 7-20z" fill="#91A1B5"/>
<path transform="translate(327,1047)" d="m0 0h1v12l-9 13-3-1 5-6 4-7z" fill="#99B7A0"/>
<path transform="translate(468,969)" d="m0 0 8 2 6 2v2h4v2l6 1 1 2-5-1-20-8z" fill="#CB9DB7"/>
<path transform="translate(1277,757)" d="m0 0h7l12 3v2l-17-2-3-2z" fill="#969EB5"/>
<path transform="translate(245,406)" d="m0 0 2 1 4 10 6 12-3-1-8-15z" fill="#CD97BA"/>
<path transform="translate(971,1099)" d="m0 0h6l7 3 4 4 1 6-2 2-1-7-11-6z" fill="#505569"/>
<path transform="translate(1193,530)" d="m0 0 14 1v3h-11l-3-1z" fill="#A399BB"/>
<path transform="translate(681,145)" d="m0 0 3 1-11 5-11 3-3-1 10-4z" fill="#C290B4"/>
<path transform="translate(486,976)" d="m0 0 7 1 7 4 3 6-5-2-5-4-3-3z" fill="#9B97AD"/>
<path transform="translate(461,958)" d="m0 0h1l1 7 6 3-1 2-11-2v-3h2z" fill="#737788"/>
<path transform="translate(66,845)" d="m0 0h2v2l-9 6-10 4 1-3 12-6z" fill="#919FB8"/>
<path transform="translate(231,1263)" d="m0 0h2l-2 6-6 14-2 4 1-8 5-12z" fill="#E4A899"/>
<path transform="translate(1190,910)" d="m0 0 1 2-5 8-4 3-2-1 6-9z" fill="#90A2B1"/>
<path transform="translate(339,648)" d="m0 0h2l-1 8-3 13-2-1 2-13z" fill="#B8A6B0"/>
<path transform="translate(273,1075)" d="m0 0h7l5 1v1l-11 1-10 4-2-1z" fill="#83959F"/>
<path transform="translate(843,963)" d="m0 0h4l1 4-3 4-4-1v-5z" fill="#E0E2C9"/>
<path transform="translate(373,944)" d="m0 0 6 4 2 3 2 16-3-3-1-12-6-6z" fill="#505963"/>
<path transform="translate(1353,731)" d="m0 0 2 1-7 10-4-1-2-2 1-3 6 2 2-4z" fill="#95A5AD"/>
<path transform="translate(512,1009)" d="m0 0 2 1v2l3 1 8 12h-3l-9-12z" fill="#CA99B8"/>
<path transform="translate(858,971)" d="m0 0 4 1 1 7h-5l-1-1z" fill="#CFDDC4"/>
<path transform="translate(798,971)" d="m0 0 5 5-1 4-2 1-3-3v-6z" fill="#C7D4B9"/>
<path transform="translate(819,53)" d="m0 0 11 7 11 2-4 2-11-3-5-3z" fill="#B69FA7"/>
<path transform="translate(834,1106)" d="m0 0h2l1 11 10-1v3h-12v-7z" fill="#8D9AB9"/>
<path transform="translate(721,1109)" d="m0 0 2 3 1 4v7l-3 9-1-4 1-14z" fill="#070409"/>
<path transform="translate(575,1098)" d="m0 0h3l7 16-2 4-4-10-2-7v-2z" fill="#838BA6"/>
<path transform="translate(381,966)" d="m0 0 5 4h7l-1 2h-3v2h-2v3h-3l-1-7z" fill="#829B88"/>
<path transform="translate(1134,906)" d="m0 0 2 3 3 7-1 3-3 1-2-4z" fill="#999AB5"/>
<path transform="translate(321,614)" d="m0 0 9 1 8 2 2 3-3 1-16-6z" fill="#B09A9E"/>
<path transform="translate(1049,131)" d="m0 0 9 1v2l8 1 4 4-9-3-9-2z" fill="#A98195"/>
<path transform="translate(186,1119)" d="m0 0h2l-1 11-1 1h-5l-2-3 5-1z" fill="#96AFBB"/>
<path transform="translate(21,859)" d="m0 0h5l1 2-15 3h-5l1-2z" fill="#90A1B5"/>
<path transform="translate(978,1152)" d="m0 0h2l6 7 3 1v2l-5 1-6-10z" fill="#575E70"/>
<path transform="translate(1157,522)" d="m0 0h9l8 3-3 2-9-2-5-2z" fill="#8D8DAD"/>
<path transform="translate(124,239)" d="m0 0 2 3 5 13-1 2-4-5-2-8z" fill="#CD97BA"/>
<path transform="translate(231,1248)" d="m0 0 4 1 1 2v8l-2 4h-2l1-10z" fill="#CFA0A9"/>
<path transform="translate(189,1099)" d="m0 0 2 1-2 14-1 5h-2l1-11z" fill="#9ACAA0"/>
<path transform="translate(46,1072)" d="m0 0 4 5 6 3-1 2h-4v-2l-5-2-1-5z" fill="#737E91"/>
<path transform="translate(357,934)" d="m0 0 12 7 4 3-1 2-13-8-5-1z" fill="#8FA2B1"/>
<path transform="translate(655,616)" d="m0 0 14 2 2 4-6-1-10-4z" fill="#C697C0"/>
<path transform="translate(34,933)" d="m0 0 3 1 5 10v4h-2l-5-11z" fill="#8FA0B4"/>
<path transform="translate(596,1166)" d="m0 0h2l-1 10 2 9-2-2-3-10 1-5z" fill="#B6BD9E"/>
<path transform="translate(878,1101)" d="m0 0h7l2 2-9 2-7 2 5-5z" fill="#5D657A"/>
<path transform="translate(573,1089)" d="m0 0 2 3 2 7 1 6-3-3-3-5z" fill="#CEA2AF"/>
<path transform="translate(261,1080)" d="m0 0 2 1v2l-5 3h-2v2l-4 3h-2l2-4z" fill="#93A2B4"/>
<path transform="translate(503,989)" d="m0 0 3 4 1 4 3 3 2 5-2 2-7-14z" fill="#D0A0AF"/>
<path transform="translate(400,973)" d="m0 0 11 3 6 2v1h-7l-9-3z" fill="#BDABB1"/>
<path transform="translate(764,148)" d="m0 0 4 1 6 9 2 5-1 3-6-12z" fill="#C292AC"/>
<path transform="translate(225,1174)" d="m0 0 4 2 6 10-1 3-3-4z" fill="#E0AC93"/>
<path transform="translate(1239,761)" d="m0 0 11 1 1 3-7 1-5-3z" fill="#9EA4AE"/>
<path transform="translate(236,756)" d="m0 0 13 2 1 2-8 1-6-4z" fill="#939FB9"/>
<path transform="translate(295,805)" d="m0 0h1l1 15h-2l-2 2 1-12z" fill="#9ACE88"/>
<path transform="translate(341,625)" d="m0 0 3 1v11l-1 5-2-4z" fill="#A3CF88"/>
<path transform="translate(1214,289)" d="m0 0 7 1 13 3v1l-11-1-7-1z" fill="#A6A581"/>
<path transform="translate(1089,159)" d="m0 0 5 3 5 4 2 1v2l2 1-4-1-6-4-4-4z" fill="#B9AA88"/>
<path transform="translate(936,1093)" d="m0 0h5l-3 2h-3v2l-5 2h-3l1-3z" fill="#898FAE"/>
<path transform="translate(960,1095)" d="m0 0 13 2 4 2-7 1-8-3z" fill="#8895B3"/>
<path transform="translate(92,826)" d="m0 0 2 1-4 4-7 4-2-1 3-3z" fill="#8A9AAF"/>
<path transform="translate(135,746)" d="m0 0 3 1-10 7-4 2v-3z" fill="#94A2B9"/>
<path transform="translate(1384,585)" d="m0 0 4 1 5 3 3 4h-5l-1-3-2-1z" fill="#919DB4"/>
<path transform="translate(932,454)" d="m0 0h2l7 11v3h-2l-6-11z" fill="#BE92BA"/>
<path transform="translate(393,970)" d="m0 0 9 2-1 3-4-1h-8v-2z" fill="#ADCD8D"/>
<path transform="translate(813,444)" d="m0 0 11 3 5 2v1h-6l-10-4z" fill="#D197B7"/>
<path transform="translate(1349,392)" d="m0 0 5 5 4 5-1 4-1-3-3-2v-3h-2l-2-3z" fill="#CAB5A0"/>
<path transform="translate(600,1201)" d="m0 0h2v9l2 6-3-3-2-5v-6z" fill="#070409"/>
<path transform="translate(1090,1164)" d="m0 0v3l-10 9v-3l5-4z" fill="#929BB6"/>
<path transform="translate(714,1093)" d="m0 0 3 3 3 10-3-1-2-5z" fill="#363947"/>
<path transform="translate(39,1041)" d="m0 0h1l1 9-2 4-2-5 1-7z" fill="#73838C"/>
<path transform="translate(360,1014)" d="m0 0h4l-1 3-8 4h-2v-2z" fill="#8AA49B"/>
<path transform="translate(1350,546)" d="m0 0h9v3h-10z" fill="#8884A3"/>
<path transform="translate(783,185)" d="m0 0 3 4 3 3 6 1-4 2-5-1-3-5z" fill="#CD97BA"/>
<path transform="translate(388,34)" d="m0 0 2 1-5 4-8 2v-2z" fill="#CB97BB"/>
<path transform="translate(772,1081)" d="m0 0h8l5 1v2h-10z" fill="#6A738B"/>
<path transform="translate(744,972)" d="m0 0 5 2 3-1v3l-2 1h-7l-1-4z" fill="#9A9FCA"/>
<path transform="translate(102,819)" d="m0 0 2 1-5 5-6 4 1-4z" fill="#91A0B7"/>
<path transform="translate(804,677)" d="m0 0h8l-4 2-9 1-5 1 2-3z" fill="#C198C4"/>
<path transform="translate(945,515)" d="m0 0 3 2-8 8h-2l2-4z" fill="#D597B4"/>
<path transform="translate(1327,339)" d="m0 0 5 1 9 4 2 2h-5l-11-6z" fill="#8E7085"/>
<path transform="translate(283,64)" d="m0 0h12l-2 2-12 1v-2z" fill="#B98CB1"/>
<path transform="translate(218,1121)" d="m0 0 3 1-7 5-2 2-1-5z" fill="#82879B"/>
<path transform="translate(331,1034)" d="m0 0h2l-2 7-3 4v-7z" fill="#86938F"/>
<path transform="translate(520,847)" d="m0 0 5 1 2 4-4-1-4 2z" fill="#717893"/>
<path transform="translate(1207,532)" d="m0 0 14 2v1h-14z" fill="#828EAB"/>
</svg>
